<svg width="576" height="900" viewBox="0 0 576 900" fill="none" xmlns="http://www.w3.org/2000/svg">
<g clip-path="url(#clip0_70_10387)">
<rect width="576" height="900" fill="url(#paint0_linear_70_10387)"/>
<path d="M576 698H473.5V235H155.5L-33 613" stroke="#FDDD18" stroke-width="56"/>
<path d="M218.492 651.859C217.766 651.866 217.056 651.9 216.337 651.993C216.232 652.006 214.861 652.294 214.991 652.38C215.204 652.522 215.725 652.219 215.939 652.182C216.344 652.112 217.533 651.921 217.881 652.182C218.03 652.293 217.537 652.327 217.355 652.365C215.585 652.741 213.795 653.03 212.016 653.359C211.223 653.505 208.836 653.826 209.642 653.826C211.544 653.826 213.542 653.301 215.413 653.031C217.344 652.752 219.29 652.557 221.184 652.077C221.235 652.064 221.674 652.011 221.502 651.864C221.354 651.737 221.029 651.771 220.866 651.77C220.214 651.762 219.561 651.77 218.909 651.77C218.082 651.77 217.254 651.77 216.426 651.77C216.088 651.77 217.102 651.749 217.439 651.72C218.002 651.672 218.563 651.601 219.128 651.591C219.481 651.585 218.493 651.785 218.423 651.809C217.599 652.091 215.119 652.753 215.989 652.753" stroke="#D86028" stroke-width="3" stroke-linecap="round"/>
</g>
<defs>
<linearGradient id="paint0_linear_70_10387" x1="645" y1="-127.5" x2="21" y2="900" gradientUnits="userSpaceOnUse">
<stop stop-color="#5826B7"/>
<stop offset="1" stop-color="#815CC8"/>
</linearGradient>
<clipPath id="clip0_70_10387">
<rect width="576" height="900" fill="white"/>
</clipPath>
</defs>
</svg>
