<svg width="757" height="161" viewBox="0 0 757 161" fill="none" xmlns="http://www.w3.org/2000/svg">
<g clip-path="url(#clip0_124_4247)">
<rect width="757" height="161" rx="12" fill="url(#paint0_linear_124_4247)"/>
<line x1="178" y1="94" x2="757" y2="94.0001" stroke="#FDDD18" stroke-width="8"/>
<g filter="url(#filter0_d_124_4247)">
<rect x="224.404" y="27" width="47" height="47" rx="23.5" fill="#FDDD18"/>
<path d="M250.226 34.4545V49H247.591V37.0185H247.506L244.104 39.1918V36.777L247.719 34.4545H250.226Z" fill="black"/>
<path d="M240.474 62.088V55.32H237.63C237.582 56.3 237.514 57.16 237.426 57.9C237.338 58.64 237.234 59.282 237.114 59.826C236.994 60.37 236.86 60.826 236.712 61.194C236.564 61.558 236.404 61.856 236.232 62.088H240.474ZM243.048 62.088V64.746C243.048 64.85 243.014 64.934 242.946 64.998C242.878 65.062 242.788 65.094 242.676 65.094H241.986V63H235.056V64.746C235.056 64.85 235.02 64.934 234.948 64.998C234.88 65.062 234.792 65.094 234.684 65.094H233.988V62.088H234.864C234.988 62.028 235.112 61.932 235.236 61.8C235.36 61.664 235.478 61.472 235.59 61.224C235.706 60.972 235.814 60.656 235.914 60.276C236.014 59.896 236.104 59.432 236.184 58.884C236.268 58.332 236.34 57.688 236.4 56.952C236.46 56.216 236.506 55.366 236.538 54.402H241.644V62.088H243.048ZM247.888 59.298C247.888 59.05 247.852 58.824 247.78 58.62C247.712 58.412 247.61 58.234 247.474 58.086C247.342 57.934 247.18 57.818 246.988 57.738C246.796 57.654 246.578 57.612 246.334 57.612C245.822 57.612 245.416 57.762 245.116 58.062C244.82 58.358 244.636 58.77 244.564 59.298H247.888ZM248.752 62.148C248.62 62.308 248.462 62.448 248.278 62.568C248.094 62.684 247.896 62.78 247.684 62.856C247.476 62.932 247.26 62.988 247.036 63.024C246.812 63.064 246.59 63.084 246.37 63.084C245.95 63.084 245.562 63.014 245.206 62.874C244.854 62.73 244.548 62.522 244.288 62.25C244.032 61.974 243.832 61.634 243.688 61.23C243.544 60.826 243.472 60.362 243.472 59.838C243.472 59.414 243.536 59.018 243.664 58.65C243.796 58.282 243.984 57.964 244.228 57.696C244.472 57.424 244.77 57.212 245.122 57.06C245.474 56.904 245.87 56.826 246.31 56.826C246.674 56.826 247.01 56.888 247.318 57.012C247.63 57.132 247.898 57.308 248.122 57.54C248.35 57.768 248.528 58.052 248.656 58.392C248.784 58.728 248.848 59.112 248.848 59.544C248.848 59.712 248.83 59.824 248.794 59.88C248.758 59.936 248.69 59.964 248.59 59.964H244.528C244.54 60.348 244.592 60.682 244.684 60.966C244.78 61.25 244.912 61.488 245.08 61.68C245.248 61.868 245.448 62.01 245.68 62.106C245.912 62.198 246.172 62.244 246.46 62.244C246.728 62.244 246.958 62.214 247.15 62.154C247.346 62.09 247.514 62.022 247.654 61.95C247.794 61.878 247.91 61.812 248.002 61.752C248.098 61.688 248.18 61.656 248.248 61.656C248.336 61.656 248.404 61.69 248.452 61.758L248.752 62.148ZM255.224 56.922V63H254.15V60.156H251.234V63H250.16V56.922H251.234V59.346H254.15V56.922H255.224ZM259.256 62.22C259.472 62.22 259.658 62.194 259.814 62.142C259.974 62.086 260.106 62.01 260.21 61.914C260.314 61.814 260.392 61.698 260.444 61.566C260.496 61.434 260.522 61.29 260.522 61.134C260.522 60.99 260.5 60.856 260.456 60.732C260.412 60.604 260.338 60.492 260.234 60.396C260.134 60.3 260.002 60.224 259.838 60.168C259.674 60.112 259.474 60.084 259.238 60.084H257.948V62.22H259.256ZM259.238 59.304C259.658 59.304 260.01 59.354 260.294 59.454C260.582 59.554 260.812 59.688 260.984 59.856C261.16 60.024 261.286 60.218 261.362 60.438C261.438 60.658 261.476 60.886 261.476 61.122C261.476 61.394 261.428 61.646 261.332 61.878C261.236 62.106 261.094 62.304 260.906 62.472C260.718 62.636 260.486 62.766 260.21 62.862C259.934 62.954 259.616 63 259.256 63H256.922V56.922H257.948V59.304H259.238Z" fill="#787878"/>
</g>
<path fill-rule="evenodd" clip-rule="evenodd" d="M252.552 80.7841C251.356 80.9267 250.138 81 248.904 81C232.059 81 218.404 67.3447 218.404 50.5C218.404 47.183 218.933 43.9897 219.912 41H64.2671C58.5355 41 53.6041 45.0533 52.4943 50.6764L42.2311 102.676C40.7672 110.093 46.4438 117 54.004 117H235.541C241.273 117 246.204 112.947 247.314 107.324L252.552 80.7841Z" fill="white"/>
<path d="M75.6591 60.3636V72H73.5682V62.1136H68.4773V72H66.3864V60.3636H75.6591ZM81.8964 72.1705C81.0441 72.1705 80.3054 71.983 79.6804 71.608C79.0554 71.233 78.5706 70.7083 78.2259 70.0341C77.885 69.3598 77.7145 68.572 77.7145 67.6705C77.7145 66.7689 77.885 65.9792 78.2259 65.3011C78.5706 64.6231 79.0554 64.0966 79.6804 63.7216C80.3054 63.3466 81.0441 63.1591 81.8964 63.1591C82.7486 63.1591 83.4873 63.3466 84.1123 63.7216C84.7373 64.0966 85.2202 64.6231 85.5611 65.3011C85.9058 65.9792 86.0782 66.7689 86.0782 67.6705C86.0782 68.572 85.9058 69.3598 85.5611 70.0341C85.2202 70.7083 84.7373 71.233 84.1123 71.608C83.4873 71.983 82.7486 72.1705 81.8964 72.1705ZM81.9077 70.5227C82.3698 70.5227 82.7562 70.3958 83.0668 70.142C83.3774 69.8845 83.6085 69.5398 83.76 69.108C83.9153 68.6761 83.9929 68.1951 83.9929 67.6648C83.9929 67.1307 83.9153 66.6477 83.76 66.2159C83.6085 65.7803 83.3774 65.4337 83.0668 65.1761C82.7562 64.9186 82.3698 64.7898 81.9077 64.7898C81.4342 64.7898 81.0403 64.9186 80.7259 65.1761C80.4153 65.4337 80.1823 65.7803 80.027 66.2159C79.8755 66.6477 79.7998 67.1307 79.7998 67.6648C79.7998 68.1951 79.8755 68.6761 80.027 69.108C80.1823 69.5398 80.4153 69.8845 80.7259 70.142C81.0403 70.3958 81.4342 70.5227 81.9077 70.5227ZM87.0512 74.5341V70.3068H87.7444C87.93 70.1629 88.0853 69.9678 88.2103 69.7216C88.3353 69.4716 88.4375 69.178 88.5171 68.8409C88.6004 68.5 88.6686 68.1193 88.7216 67.6989C88.7747 67.2746 88.822 66.8182 88.8637 66.3295L89.1137 63.2727H95.4205V70.3068H96.7728V74.5341H94.7841V72H89.0739V74.5341H87.0512ZM89.858 70.3068H93.4546V64.9318H90.8978L90.7614 66.3295C90.6857 67.2538 90.5853 68.0455 90.4603 68.7045C90.3353 69.3636 90.1345 69.8977 89.858 70.3068ZM100.82 72.1761C100.267 72.1761 99.7685 72.0777 99.3253 71.8807C98.8859 71.6799 98.5374 71.3845 98.2799 70.9943C98.0261 70.6042 97.8992 70.1231 97.8992 69.5511C97.8992 69.0587 97.9901 68.6515 98.1719 68.3295C98.3537 68.0076 98.6018 67.75 98.9162 67.5568C99.2306 67.3636 99.5848 67.2178 99.9787 67.1193C100.376 67.017 100.787 66.9432 101.212 66.8977C101.723 66.8447 102.138 66.7973 102.456 66.7557C102.774 66.7102 103.005 66.642 103.149 66.5511C103.297 66.4564 103.371 66.3106 103.371 66.1136V66.0795C103.371 65.6515 103.244 65.3201 102.99 65.0852C102.736 64.8504 102.371 64.733 101.894 64.733C101.39 64.733 100.99 64.8428 100.695 65.0625C100.403 65.2822 100.206 65.5417 100.104 65.8409L98.1833 65.5682C98.3348 65.0379 98.5848 64.5947 98.9333 64.2386C99.2818 63.8788 99.7079 63.6098 100.212 63.4318C100.715 63.25 101.272 63.1591 101.882 63.1591C102.303 63.1591 102.721 63.2083 103.138 63.3068C103.554 63.4053 103.935 63.5682 104.28 63.7955C104.625 64.0189 104.901 64.3239 105.109 64.7102C105.322 65.0966 105.428 65.5795 105.428 66.1591V72H103.45V70.8011H103.382C103.257 71.0436 103.081 71.2708 102.854 71.483C102.63 71.6913 102.348 71.8598 102.007 71.9886C101.67 72.1136 101.274 72.1761 100.82 72.1761ZM101.354 70.6648C101.767 70.6648 102.125 70.5833 102.428 70.4205C102.731 70.2538 102.964 70.0341 103.126 69.7614C103.293 69.4886 103.376 69.1913 103.376 68.8693V67.8409C103.312 67.8939 103.202 67.9432 103.047 67.9886C102.895 68.0341 102.725 68.0739 102.536 68.108C102.346 68.142 102.159 68.1723 101.973 68.1989C101.787 68.2254 101.626 68.2481 101.49 68.267C101.183 68.3087 100.909 68.3769 100.666 68.4716C100.424 68.5663 100.233 68.6989 100.092 68.8693C99.9522 69.036 99.8821 69.2519 99.8821 69.517C99.8821 69.8958 100.02 70.1818 100.297 70.375C100.573 70.5682 100.926 70.6648 101.354 70.6648ZM114.786 63.2727V72H112.808V63.2727H114.786ZM113.859 67.2159V68.8977C113.636 68.9962 113.382 69.0852 113.098 69.1648C112.818 69.2405 112.52 69.3011 112.206 69.3466C111.895 69.392 111.585 69.4148 111.274 69.4148C110.108 69.4148 109.185 69.1534 108.507 68.6307C107.833 68.1042 107.496 67.2841 107.496 66.1705V63.2614H109.462V66.1705C109.462 66.5455 109.528 66.8466 109.661 67.0739C109.793 67.3011 109.994 67.4678 110.263 67.5739C110.532 67.6761 110.869 67.7273 111.274 67.7273C111.729 67.7273 112.161 67.6818 112.57 67.5909C112.979 67.5 113.409 67.375 113.859 67.2159ZM119.367 72.1761C118.813 72.1761 118.315 72.0777 117.872 71.8807C117.433 71.6799 117.084 71.3845 116.827 70.9943C116.573 70.6042 116.446 70.1231 116.446 69.5511C116.446 69.0587 116.537 68.6515 116.719 68.3295C116.901 68.0076 117.149 67.75 117.463 67.5568C117.778 67.3636 118.132 67.2178 118.526 67.1193C118.923 67.017 119.334 66.9432 119.759 66.8977C120.27 66.8447 120.685 66.7973 121.003 66.7557C121.321 66.7102 121.552 66.642 121.696 66.5511C121.844 66.4564 121.918 66.3106 121.918 66.1136V66.0795C121.918 65.6515 121.791 65.3201 121.537 65.0852C121.283 64.8504 120.918 64.733 120.44 64.733C119.937 64.733 119.537 64.8428 119.242 65.0625C118.95 65.2822 118.753 65.5417 118.651 65.8409L116.73 65.5682C116.882 65.0379 117.132 64.5947 117.48 64.2386C117.829 63.8788 118.255 63.6098 118.759 63.4318C119.262 63.25 119.819 63.1591 120.429 63.1591C120.849 63.1591 121.268 63.2083 121.685 63.3068C122.101 63.4053 122.482 63.5682 122.827 63.7955C123.171 64.0189 123.448 64.3239 123.656 64.7102C123.868 65.0966 123.974 65.5795 123.974 66.1591V72H121.997V70.8011H121.929C121.804 71.0436 121.628 71.2708 121.401 71.483C121.177 71.6913 120.895 71.8598 120.554 71.9886C120.217 72.1136 119.821 72.1761 119.367 72.1761ZM119.901 70.6648C120.313 70.6648 120.671 70.5833 120.974 70.4205C121.278 70.2538 121.51 70.0341 121.673 69.7614C121.84 69.4886 121.923 69.1913 121.923 68.8693V67.8409C121.859 67.8939 121.749 67.9432 121.594 67.9886C121.442 68.0341 121.272 68.0739 121.082 68.108C120.893 68.142 120.706 68.1723 120.52 68.1989C120.334 68.2254 120.173 68.2481 120.037 68.267C119.73 68.3087 119.456 68.3769 119.213 68.4716C118.971 68.5663 118.779 68.6989 118.639 68.8693C118.499 69.036 118.429 69.2519 118.429 69.517C118.429 69.8958 118.567 70.1818 118.844 70.375C119.12 70.5682 119.473 70.6648 119.901 70.6648ZM65.3012 98.5341V94.3068H65.9944C66.18 94.1629 66.3353 93.9678 66.4603 93.7216C66.5853 93.4716 66.6875 93.178 66.7671 92.8409C66.8504 92.5 66.9186 92.1193 66.9716 91.6989C67.0247 91.2746 67.072 90.8182 67.1137 90.3295L67.3637 87.2727H73.6705V94.3068H75.0228V98.5341H73.0341V96H67.3239V98.5341H65.3012ZM68.108 94.3068H71.7046V88.9318H69.1478L69.0114 90.3295C68.9357 91.2538 68.8353 92.0455 68.7103 92.7045C68.5853 93.3636 68.3845 93.8977 68.108 94.3068ZM80.3651 96.1705C79.5128 96.1705 78.7742 95.983 78.1492 95.608C77.5242 95.233 77.0393 94.7083 76.6946 94.0341C76.3537 93.3598 76.1833 92.572 76.1833 91.6705C76.1833 90.7689 76.3537 89.9792 76.6946 89.3011C77.0393 88.6231 77.5242 88.0966 78.1492 87.7216C78.7742 87.3466 79.5128 87.1591 80.3651 87.1591C81.2174 87.1591 81.956 87.3466 82.581 87.7216C83.206 88.0966 83.689 88.6231 84.0299 89.3011C84.3746 89.9792 84.5469 90.7689 84.5469 91.6705C84.5469 92.572 84.3746 93.3598 84.0299 94.0341C83.689 94.7083 83.206 95.233 82.581 95.608C81.956 95.983 81.2174 96.1705 80.3651 96.1705ZM80.3765 94.5227C80.8386 94.5227 81.2249 94.3958 81.5356 94.142C81.8462 93.8845 82.0772 93.5398 82.2287 93.108C82.384 92.6761 82.4617 92.1951 82.4617 91.6648C82.4617 91.1307 82.384 90.6477 82.2287 90.2159C82.0772 89.7803 81.8462 89.4337 81.5356 89.1761C81.2249 88.9186 80.8386 88.7898 80.3765 88.7898C79.903 88.7898 79.509 88.9186 79.1946 89.1761C78.884 89.4337 78.6511 89.7803 78.4958 90.2159C78.3443 90.6477 78.2685 91.1307 78.2685 91.6648C78.2685 92.1951 78.3443 92.6761 78.4958 93.108C78.6511 93.5398 78.884 93.8845 79.1946 94.142C79.509 94.3958 79.903 94.5227 80.3765 94.5227ZM86.2927 96V87.2727H88.3495V90.7955H89.0995L91.7245 87.2727H94.2017L90.9688 91.5568L94.2358 96H91.7472L89.3552 92.7102H88.3495V96H86.2927ZM96.7742 99.2727C96.4939 99.2727 96.2344 99.25 95.9958 99.2045C95.7609 99.1629 95.5734 99.1136 95.4333 99.0568L95.9106 97.4545C96.2098 97.5417 96.4768 97.5833 96.7117 97.5795C96.9465 97.5758 97.153 97.5019 97.331 97.358C97.5128 97.2178 97.6662 96.983 97.7912 96.6534L97.9674 96.1818L94.8026 87.2727H96.9844L98.9958 93.8636H99.0867L101.104 87.2727H103.291L99.7969 97.0568C99.634 97.5189 99.4181 97.9148 99.1492 98.2443C98.8803 98.5777 98.5507 98.8314 98.1606 99.0057C97.7742 99.1837 97.3121 99.2727 96.7742 99.2727ZM109.737 93.608L112.328 87.2727H113.987L110.459 96H109.021L105.572 87.2727H107.215L109.737 93.608ZM106.697 87.2727V96H104.715V87.2727H106.697ZM112.862 96V87.2727H114.828V96H112.862ZM120.766 96.1705C119.891 96.1705 119.135 95.9886 118.499 95.625C117.866 95.2576 117.379 94.7386 117.038 94.0682C116.697 93.3939 116.527 92.6004 116.527 91.6875C116.527 90.7898 116.697 90.0019 117.038 89.3239C117.383 88.642 117.864 88.1117 118.482 87.733C119.099 87.3504 119.824 87.1591 120.658 87.1591C121.196 87.1591 121.703 87.2462 122.18 87.4205C122.662 87.5909 123.086 87.8561 123.453 88.2159C123.824 88.5758 124.116 89.0341 124.328 89.5909C124.54 90.1439 124.646 90.803 124.646 91.5682V92.1989H117.493V90.8125H122.675C122.671 90.4186 122.586 90.0682 122.419 89.7614C122.252 89.4508 122.019 89.2064 121.72 89.0284C121.425 88.8504 121.08 88.7614 120.686 88.7614C120.266 88.7614 119.896 88.8636 119.578 89.0682C119.26 89.2689 119.012 89.5341 118.834 89.8636C118.66 90.1894 118.571 90.5473 118.567 90.9375V92.1477C118.567 92.6553 118.66 93.0909 118.845 93.4545C119.031 93.8144 119.29 94.0909 119.624 94.2841C119.957 94.4735 120.347 94.5682 120.794 94.5682C121.093 94.5682 121.364 94.5265 121.607 94.4432C121.849 94.3561 122.059 94.2292 122.237 94.0625C122.415 93.8958 122.55 93.6894 122.641 93.4432L124.561 93.6591C124.44 94.1667 124.209 94.6098 123.868 94.9886C123.531 95.3636 123.099 95.6553 122.572 95.8636C122.046 96.0682 121.444 96.1705 120.766 96.1705ZM132.381 90.7841V92.4716H127.733V90.7841H132.381ZM128.369 87.2727V96H126.386V87.2727H128.369ZM133.727 87.2727V96H131.75V87.2727H133.727ZM134.831 88.9602V87.2727H142.467V88.9602H139.644V96H137.655V88.9602H134.831ZM147.553 96.1705C146.7 96.1705 145.962 95.983 145.337 95.608C144.712 95.233 144.227 94.7083 143.882 94.0341C143.541 93.3598 143.371 92.572 143.371 91.6705C143.371 90.7689 143.541 89.9792 143.882 89.3011C144.227 88.6231 144.712 88.0966 145.337 87.7216C145.962 87.3466 146.7 87.1591 147.553 87.1591C148.405 87.1591 149.144 87.3466 149.769 87.7216C150.394 88.0966 150.876 88.6231 151.217 89.3011C151.562 89.9792 151.734 90.7689 151.734 91.6705C151.734 92.572 151.562 93.3598 151.217 94.0341C150.876 94.7083 150.394 95.233 149.769 95.608C149.144 95.983 148.405 96.1705 147.553 96.1705ZM147.564 94.5227C148.026 94.5227 148.412 94.3958 148.723 94.142C149.034 93.8845 149.265 93.5398 149.416 93.108C149.572 92.6761 149.649 92.1951 149.649 91.6648C149.649 91.1307 149.572 90.6477 149.416 90.2159C149.265 89.7803 149.034 89.4337 148.723 89.1761C148.412 88.9186 148.026 88.7898 147.564 88.7898C147.09 88.7898 146.697 88.9186 146.382 89.1761C146.072 89.4337 145.839 89.7803 145.683 90.2159C145.532 90.6477 145.456 91.1307 145.456 91.6648C145.456 92.1951 145.532 92.6761 145.683 93.108C145.839 93.5398 146.072 93.8845 146.382 94.142C146.697 94.3958 147.09 94.5227 147.564 94.5227ZM153.48 96V87.2727H157.145C158.179 87.2727 158.995 87.4792 159.594 87.892C160.196 88.3049 160.497 88.8807 160.497 89.6193C160.497 90.108 160.327 90.5076 159.986 90.8182C159.649 91.125 159.188 91.3314 158.605 91.4375C159.063 91.4754 159.465 91.5909 159.81 91.7841C160.158 91.9773 160.431 92.2311 160.628 92.5455C160.825 92.8598 160.923 93.2216 160.923 93.6307C160.923 94.1117 160.796 94.5303 160.543 94.8864C160.293 95.2386 159.927 95.5133 159.446 95.7102C158.969 95.9034 158.389 96 157.707 96H153.48ZM155.406 94.3807H157.707C158.086 94.3807 158.384 94.2917 158.599 94.1136C158.815 93.9318 158.923 93.6856 158.923 93.375C158.923 93.0152 158.815 92.733 158.599 92.5284C158.384 92.3201 158.086 92.2159 157.707 92.2159H155.406V94.3807ZM155.406 90.8864H157.185C157.465 90.8864 157.706 90.8466 157.906 90.767C158.107 90.6837 158.26 90.5682 158.367 90.4205C158.473 90.2689 158.526 90.089 158.526 89.8807C158.526 89.5814 158.403 89.3466 158.156 89.1761C157.914 89.0057 157.577 88.9205 157.145 88.9205H155.406V90.8864Z" fill="black"/>
<rect x="470.404" y="27" width="47" height="47" rx="23.5" fill="#5E36AB"/>
<path d="M488.31 49V47.0966L493.359 42.1463C493.842 41.6586 494.245 41.2254 494.567 40.8466C494.889 40.4678 495.13 40.1009 495.291 39.7457C495.452 39.3906 495.533 39.0118 495.533 38.6094C495.533 38.1501 495.429 37.7571 495.22 37.4304C495.012 37.099 494.725 36.8433 494.361 36.6634C493.996 36.4834 493.582 36.3935 493.118 36.3935C492.64 36.3935 492.221 36.4929 491.861 36.6918C491.501 36.8859 491.222 37.1629 491.023 37.5227C490.829 37.8826 490.732 38.3111 490.732 38.8082H488.224C488.224 37.8849 488.435 37.0824 488.857 36.4006C489.278 35.7187 489.858 35.1908 490.597 34.8168C491.34 34.4427 492.192 34.2557 493.153 34.2557C494.129 34.2557 494.986 34.438 495.724 34.8026C496.463 35.1671 497.036 35.6667 497.443 36.3011C497.855 36.9356 498.061 37.66 498.061 38.4744C498.061 39.0189 497.957 39.554 497.749 40.0795C497.54 40.6051 497.173 41.1875 496.648 41.8267C496.127 42.4659 495.395 43.2401 494.453 44.1491L491.946 46.6989V46.7983H498.281V49H488.31Z" fill="white"/>
<path d="M486.474 62.088V55.32H483.63C483.582 56.3 483.514 57.16 483.426 57.9C483.338 58.64 483.234 59.282 483.114 59.826C482.994 60.37 482.86 60.826 482.712 61.194C482.564 61.558 482.404 61.856 482.232 62.088H486.474ZM489.048 62.088V64.746C489.048 64.85 489.014 64.934 488.946 64.998C488.878 65.062 488.788 65.094 488.676 65.094H487.986V63H481.056V64.746C481.056 64.85 481.02 64.934 480.948 64.998C480.88 65.062 480.792 65.094 480.684 65.094H479.988V62.088H480.864C480.988 62.028 481.112 61.932 481.236 61.8C481.36 61.664 481.478 61.472 481.59 61.224C481.706 60.972 481.814 60.656 481.914 60.276C482.014 59.896 482.104 59.432 482.184 58.884C482.268 58.332 482.34 57.688 482.4 56.952C482.46 56.216 482.506 55.366 482.538 54.402H487.644V62.088H489.048ZM493.888 59.298C493.888 59.05 493.852 58.824 493.78 58.62C493.712 58.412 493.61 58.234 493.474 58.086C493.342 57.934 493.18 57.818 492.988 57.738C492.796 57.654 492.578 57.612 492.334 57.612C491.822 57.612 491.416 57.762 491.116 58.062C490.82 58.358 490.636 58.77 490.564 59.298H493.888ZM494.752 62.148C494.62 62.308 494.462 62.448 494.278 62.568C494.094 62.684 493.896 62.78 493.684 62.856C493.476 62.932 493.26 62.988 493.036 63.024C492.812 63.064 492.59 63.084 492.37 63.084C491.95 63.084 491.562 63.014 491.206 62.874C490.854 62.73 490.548 62.522 490.288 62.25C490.032 61.974 489.832 61.634 489.688 61.23C489.544 60.826 489.472 60.362 489.472 59.838C489.472 59.414 489.536 59.018 489.664 58.65C489.796 58.282 489.984 57.964 490.228 57.696C490.472 57.424 490.77 57.212 491.122 57.06C491.474 56.904 491.87 56.826 492.31 56.826C492.674 56.826 493.01 56.888 493.318 57.012C493.63 57.132 493.898 57.308 494.122 57.54C494.35 57.768 494.528 58.052 494.656 58.392C494.784 58.728 494.848 59.112 494.848 59.544C494.848 59.712 494.83 59.824 494.794 59.88C494.758 59.936 494.69 59.964 494.59 59.964H490.528C490.54 60.348 490.592 60.682 490.684 60.966C490.78 61.25 490.912 61.488 491.08 61.68C491.248 61.868 491.448 62.01 491.68 62.106C491.912 62.198 492.172 62.244 492.46 62.244C492.728 62.244 492.958 62.214 493.15 62.154C493.346 62.09 493.514 62.022 493.654 61.95C493.794 61.878 493.91 61.812 494.002 61.752C494.098 61.688 494.18 61.656 494.248 61.656C494.336 61.656 494.404 61.69 494.452 61.758L494.752 62.148ZM501.224 56.922V63H500.15V60.156H497.234V63H496.16V56.922H497.234V59.346H500.15V56.922H501.224ZM505.256 62.22C505.472 62.22 505.658 62.194 505.814 62.142C505.974 62.086 506.106 62.01 506.21 61.914C506.314 61.814 506.392 61.698 506.444 61.566C506.496 61.434 506.522 61.29 506.522 61.134C506.522 60.99 506.5 60.856 506.456 60.732C506.412 60.604 506.338 60.492 506.234 60.396C506.134 60.3 506.002 60.224 505.838 60.168C505.674 60.112 505.474 60.084 505.238 60.084H503.948V62.22H505.256ZM505.238 59.304C505.658 59.304 506.01 59.354 506.294 59.454C506.582 59.554 506.812 59.688 506.984 59.856C507.16 60.024 507.286 60.218 507.362 60.438C507.438 60.658 507.476 60.886 507.476 61.122C507.476 61.394 507.428 61.646 507.332 61.878C507.236 62.106 507.094 62.304 506.906 62.472C506.718 62.636 506.486 62.766 506.21 62.862C505.934 62.954 505.616 63 505.256 63H502.922V56.922H503.948V59.304H505.238Z" fill="#DEDEDE"/>
<path fill-rule="evenodd" clip-rule="evenodd" d="M498.552 80.7841C497.356 80.9266 496.138 81 494.904 81C478.059 81 464.404 67.3447 464.404 50.5C464.404 47.183 464.933 43.9897 465.912 41H310.267C304.536 41 299.604 45.0533 298.494 50.6764L288.231 102.676C286.767 110.093 292.444 117 300.004 117H481.541C487.273 117 492.204 112.947 493.314 107.324L498.552 80.7841Z" fill="#5B31A9"/>
<path opacity="0.4" d="M476.001 104.458C476.361 104.458 476.707 104.315 476.961 104.06C477.216 103.806 477.359 103.46 477.359 103.1C477.359 102.74 477.216 102.394 476.961 102.14C476.707 101.885 476.361 101.742 476.001 101.742C475.641 101.742 475.295 101.885 475.04 102.14C474.786 102.394 474.643 102.74 474.643 103.1C474.643 103.46 474.786 103.806 475.04 104.06C475.295 104.315 475.641 104.458 476.001 104.458Z" fill="white"/>
<path d="M479.875 97.8675H472.125C468.708 97.8675 467.667 98.9092 467.667 102.326V103.876C467.667 107.292 468.708 108.334 472.125 108.334H479.875C483.292 108.334 484.333 107.292 484.333 103.876V102.326C484.333 98.9092 483.292 97.8675 479.875 97.8675ZM476 105.617C474.608 105.617 473.483 104.484 473.483 103.101C473.483 101.717 474.608 100.584 476 100.584C477.392 100.584 478.517 101.717 478.517 103.101C478.517 104.484 477.392 105.617 476 105.617Z" fill="white"/>
<path opacity="0.4" d="M471.933 97.875V96.9C471.933 94.4583 472.624 92.8333 475.999 92.8333C479.374 92.8333 480.066 94.4583 480.066 96.9V97.875C480.491 97.8833 480.874 97.9 481.233 97.95V96.9C481.233 94.65 480.691 91.6667 475.999 91.6667C471.308 91.6667 470.766 94.65 470.766 96.9V97.9417C471.116 97.9 471.508 97.875 471.933 97.875Z" fill="white"/>
<path d="M316.119 72L312.29 66.9148H311.256V72H309.148V60.3636H311.256V65.1477H311.784L315.92 60.3636H318.517L313.92 65.6705L318.716 72H316.119ZM323.223 72.1705C322.371 72.1705 321.632 71.983 321.007 71.608C320.382 71.233 319.897 70.7083 319.553 70.0341C319.212 69.3598 319.041 68.572 319.041 67.6705C319.041 66.7689 319.212 65.9792 319.553 65.3011C319.897 64.6231 320.382 64.0966 321.007 63.7216C321.632 63.3466 322.371 63.1591 323.223 63.1591C324.075 63.1591 324.814 63.3466 325.439 63.7216C326.064 64.0966 326.547 64.6231 326.888 65.3011C327.232 65.9792 327.405 66.7689 327.405 67.6705C327.405 68.572 327.232 69.3598 326.888 70.0341C326.547 70.7083 326.064 71.233 325.439 71.608C324.814 71.983 324.075 72.1705 323.223 72.1705ZM323.234 70.5227C323.696 70.5227 324.083 70.3958 324.393 70.142C324.704 69.8845 324.935 69.5398 325.087 69.108C325.242 68.6761 325.32 68.1951 325.32 67.6648C325.32 67.1307 325.242 66.6477 325.087 66.2159C324.935 65.7803 324.704 65.4337 324.393 65.1761C324.083 64.9186 323.696 64.7898 323.234 64.7898C322.761 64.7898 322.367 64.9186 322.053 65.1761C321.742 65.4337 321.509 65.7803 321.354 66.2159C321.202 66.6477 321.126 67.1307 321.126 67.6648C321.126 68.1951 321.202 68.6761 321.354 69.108C321.509 69.5398 321.742 69.8845 322.053 70.142C322.367 70.3958 322.761 70.5227 323.234 70.5227ZM329.151 75.2727V63.2727H331.173V64.7159H331.293C331.399 64.5038 331.548 64.2784 331.741 64.0398C331.935 63.7973 332.196 63.5909 332.526 63.4205C332.855 63.2462 333.276 63.1591 333.787 63.1591C334.461 63.1591 335.069 63.3314 335.611 63.6761C336.156 64.017 336.588 64.5227 336.906 65.1932C337.228 65.8598 337.389 66.678 337.389 67.6477C337.389 68.6061 337.232 69.4205 336.918 70.0909C336.603 70.7614 336.175 71.2727 335.634 71.625C335.092 71.9773 334.478 72.1534 333.793 72.1534C333.293 72.1534 332.878 72.0701 332.548 71.9034C332.219 71.7367 331.954 71.536 331.753 71.3011C331.556 71.0625 331.402 70.8371 331.293 70.625H331.207V75.2727H329.151ZM331.168 67.6364C331.168 68.2008 331.247 68.6951 331.406 69.1193C331.569 69.5436 331.802 69.875 332.105 70.1136C332.412 70.3485 332.783 70.4659 333.219 70.4659C333.673 70.4659 334.054 70.3447 334.361 70.1023C334.668 69.8561 334.899 69.5208 335.054 69.0966C335.213 68.6686 335.293 68.1818 335.293 67.6364C335.293 67.0947 335.215 66.6136 335.06 66.1932C334.904 65.7727 334.673 65.4432 334.366 65.2045C334.06 64.9659 333.677 64.8466 333.219 64.8466C332.779 64.8466 332.406 64.9621 332.099 65.1932C331.793 65.4242 331.56 65.7481 331.401 66.1648C331.245 66.5814 331.168 67.072 331.168 67.6364ZM339.151 72V63.2727H346.52V72H344.537V64.9602H341.116V72H339.151ZM352.442 72.1705C351.589 72.1705 350.851 71.983 350.226 71.608C349.601 71.233 349.116 70.7083 348.771 70.0341C348.43 69.3598 348.26 68.572 348.26 67.6705C348.26 66.7689 348.43 65.9792 348.771 65.3011C349.116 64.6231 349.601 64.0966 350.226 63.7216C350.851 63.3466 351.589 63.1591 352.442 63.1591C353.294 63.1591 354.033 63.3466 354.658 63.7216C355.283 64.0966 355.766 64.6231 356.107 65.3011C356.451 65.9792 356.624 66.7689 356.624 67.6705C356.624 68.572 356.451 69.3598 356.107 70.0341C355.766 70.7083 355.283 71.233 354.658 71.608C354.033 71.983 353.294 72.1705 352.442 72.1705ZM352.453 70.5227C352.915 70.5227 353.302 70.3958 353.612 70.142C353.923 69.8845 354.154 69.5398 354.305 69.108C354.461 68.6761 354.538 68.1951 354.538 67.6648C354.538 67.1307 354.461 66.6477 354.305 66.2159C354.154 65.7803 353.923 65.4337 353.612 65.1761C353.302 64.9186 352.915 64.7898 352.453 64.7898C351.98 64.7898 351.586 64.9186 351.271 65.1761C350.961 65.4337 350.728 65.7803 350.572 66.2159C350.421 66.6477 350.345 67.1307 350.345 67.6648C350.345 68.1951 350.421 68.6761 350.572 69.108C350.728 69.5398 350.961 69.8845 351.271 70.142C351.586 70.3958 351.98 70.5227 352.453 70.5227ZM358.369 75.2727V63.2727H360.392V64.7159H360.511C360.617 64.5038 360.767 64.2784 360.96 64.0398C361.153 63.7973 361.415 63.5909 361.744 63.4205C362.074 63.2462 362.494 63.1591 363.006 63.1591C363.68 63.1591 364.288 63.3314 364.83 63.6761C365.375 64.017 365.807 64.5227 366.125 65.1932C366.447 65.8598 366.608 66.678 366.608 67.6477C366.608 68.6061 366.451 69.4205 366.136 70.0909C365.822 70.7614 365.394 71.2727 364.852 71.625C364.311 71.9773 363.697 72.1534 363.011 72.1534C362.511 72.1534 362.097 72.0701 361.767 71.9034C361.438 71.7367 361.172 71.536 360.972 71.3011C360.775 71.0625 360.621 70.8371 360.511 70.625H360.426V75.2727H358.369ZM360.386 67.6364C360.386 68.2008 360.466 68.6951 360.625 69.1193C360.788 69.5436 361.021 69.875 361.324 70.1136C361.631 70.3485 362.002 70.4659 362.438 70.4659C362.892 70.4659 363.273 70.3447 363.58 70.1023C363.886 69.8561 364.117 69.5208 364.273 69.0966C364.432 68.6686 364.511 68.1818 364.511 67.6364C364.511 67.0947 364.434 66.6136 364.278 66.1932C364.123 65.7727 363.892 65.4432 363.585 65.2045C363.278 64.9659 362.896 64.8466 362.438 64.8466C361.998 64.8466 361.625 64.9621 361.318 65.1932C361.011 65.4242 360.778 65.7481 360.619 66.1648C360.464 66.5814 360.386 67.072 360.386 67.6364ZM370.881 72.1761C370.328 72.1761 369.83 72.0777 369.386 71.8807C368.947 71.6799 368.598 71.3845 368.341 70.9943C368.087 70.6042 367.96 70.1231 367.96 69.5511C367.96 69.0587 368.051 68.6515 368.233 68.3295C368.415 68.0076 368.663 67.75 368.977 67.5568C369.292 67.3636 369.646 67.2178 370.04 67.1193C370.438 67.017 370.848 66.9432 371.273 66.8977C371.784 66.8447 372.199 66.7973 372.517 66.7557C372.835 66.7102 373.066 66.642 373.21 66.5511C373.358 66.4564 373.432 66.3106 373.432 66.1136V66.0795C373.432 65.6515 373.305 65.3201 373.051 65.0852C372.797 64.8504 372.432 64.733 371.955 64.733C371.451 64.733 371.051 64.8428 370.756 65.0625C370.464 65.2822 370.267 65.5417 370.165 65.8409L368.244 65.5682C368.396 65.0379 368.646 64.5947 368.994 64.2386C369.343 63.8788 369.769 63.6098 370.273 63.4318C370.777 63.25 371.333 63.1591 371.943 63.1591C372.364 63.1591 372.782 63.2083 373.199 63.3068C373.616 63.4053 373.996 63.5682 374.341 63.7955C374.686 64.0189 374.962 64.3239 375.17 64.7102C375.383 65.0966 375.489 65.5795 375.489 66.1591V72H373.511V70.8011H373.443C373.318 71.0436 373.142 71.2708 372.915 71.483C372.691 71.6913 372.409 71.8598 372.068 71.9886C371.731 72.1136 371.335 72.1761 370.881 72.1761ZM371.415 70.6648C371.828 70.6648 372.186 70.5833 372.489 70.4205C372.792 70.2538 373.025 70.0341 373.188 69.7614C373.354 69.4886 373.438 69.1913 373.438 68.8693V67.8409C373.373 67.8939 373.263 67.9432 373.108 67.9886C372.956 68.0341 372.786 68.0739 372.597 68.108C372.407 68.142 372.22 68.1723 372.034 68.1989C371.848 68.2254 371.688 68.2481 371.551 68.267C371.244 68.3087 370.97 68.3769 370.727 68.4716C370.485 68.5663 370.294 68.6989 370.153 68.8693C370.013 69.036 369.943 69.2519 369.943 69.517C369.943 69.8958 370.081 70.1818 370.358 70.375C370.634 70.5682 370.987 70.6648 371.415 70.6648ZM376.58 64.9602V63.2727H384.216V64.9602H381.392V72H379.403V64.9602H376.58ZM387.837 69.2159L391.331 63.2727H393.445V72H391.456V66.0511L387.973 72H385.854V63.2727H387.837V69.2159ZM395.557 72V63.2727H399.222C400.256 63.2727 401.072 63.4792 401.67 63.892C402.273 64.3049 402.574 64.8807 402.574 65.6193C402.574 66.108 402.403 66.5076 402.062 66.8182C401.725 67.125 401.265 67.3314 400.682 67.4375C401.14 67.4754 401.542 67.5909 401.886 67.7841C402.235 67.9773 402.508 68.2311 402.705 68.5455C402.902 68.8598 403 69.2216 403 69.6307C403 70.1117 402.873 70.5303 402.619 70.8864C402.369 71.2386 402.004 71.5133 401.523 71.7102C401.045 71.9034 400.466 72 399.784 72H395.557ZM397.483 70.3807H399.784C400.163 70.3807 400.46 70.2917 400.676 70.1136C400.892 69.9318 401 69.6856 401 69.375C401 69.0152 400.892 68.733 400.676 68.5284C400.46 68.3201 400.163 68.2159 399.784 68.2159H397.483V70.3807ZM397.483 66.8864H399.261C399.542 66.8864 399.782 66.8466 399.983 66.767C400.184 66.6837 400.337 66.5682 400.443 66.4205C400.549 66.2689 400.602 66.089 400.602 65.8807C400.602 65.5814 400.479 65.3466 400.233 65.1761C399.991 65.0057 399.653 64.9205 399.222 64.9205H397.483V66.8864ZM410.692 66.7841V68.4716H406.044V66.7841H410.692ZM406.68 63.2727V72H404.697V63.2727H406.68ZM412.038 63.2727V72H410.061V63.2727H412.038ZM416.631 72.1761C416.078 72.1761 415.58 72.0777 415.136 71.8807C414.697 71.6799 414.348 71.3845 414.091 70.9943C413.837 70.6042 413.71 70.1231 413.71 69.5511C413.71 69.0587 413.801 68.6515 413.983 68.3295C414.165 68.0076 414.413 67.75 414.727 67.5568C415.042 67.3636 415.396 67.2178 415.79 67.1193C416.188 67.017 416.598 66.9432 417.023 66.8977C417.534 66.8447 417.949 66.7973 418.267 66.7557C418.585 66.7102 418.816 66.642 418.96 66.5511C419.108 66.4564 419.182 66.3106 419.182 66.1136V66.0795C419.182 65.6515 419.055 65.3201 418.801 65.0852C418.547 64.8504 418.182 64.733 417.705 64.733C417.201 64.733 416.801 64.8428 416.506 65.0625C416.214 65.2822 416.017 65.5417 415.915 65.8409L413.994 65.5682C414.146 65.0379 414.396 64.5947 414.744 64.2386C415.093 63.8788 415.519 63.6098 416.023 63.4318C416.527 63.25 417.083 63.1591 417.693 63.1591C418.114 63.1591 418.532 63.2083 418.949 63.3068C419.366 63.4053 419.746 63.5682 420.091 63.7955C420.436 64.0189 420.712 64.3239 420.92 64.7102C421.133 65.0966 421.239 65.5795 421.239 66.1591V72H419.261V70.8011H419.193C419.068 71.0436 418.892 71.2708 418.665 71.483C418.441 71.6913 418.159 71.8598 417.818 71.9886C417.481 72.1136 417.085 72.1761 416.631 72.1761ZM417.165 70.6648C417.578 70.6648 417.936 70.5833 418.239 70.4205C418.542 70.2538 418.775 70.0341 418.938 69.7614C419.104 69.4886 419.188 69.1913 419.188 68.8693V67.8409C419.123 67.8939 419.013 67.9432 418.858 67.9886C418.706 68.0341 418.536 68.0739 418.347 68.108C418.157 68.142 417.97 68.1723 417.784 68.1989C417.598 68.2254 417.438 68.2481 417.301 68.267C416.994 68.3087 416.72 68.3769 416.477 68.4716C416.235 68.5663 416.044 68.6989 415.903 68.8693C415.763 69.036 415.693 69.2519 415.693 69.517C415.693 69.8958 415.831 70.1818 416.108 70.375C416.384 70.5682 416.737 70.6648 417.165 70.6648ZM428.466 72V64.9432H426.602C426.129 64.9432 425.765 65.053 425.511 65.2727C425.258 65.4924 425.133 65.7652 425.136 66.0909C425.133 66.4167 425.252 66.6856 425.494 66.8977C425.737 67.1098 426.083 67.2159 426.534 67.2159H429.114V68.7159H426.534C425.837 68.7159 425.235 68.6061 424.727 68.3864C424.22 68.1667 423.83 67.8561 423.557 67.4545C423.284 67.053 423.148 66.5833 423.148 66.0455C423.148 65.4848 423.286 64.9981 423.562 64.5852C423.843 64.1686 424.241 63.8466 424.756 63.6193C425.275 63.3883 425.89 63.2727 426.602 63.2727H430.392V72H428.466ZM422.83 72L425.267 67.5227H427.295L424.852 72H422.83ZM309.057 96V87.2727H311.114V90.7955H311.864L314.489 87.2727H316.966L313.733 91.5568L317 96H314.511L312.119 92.7102H311.114V96H309.057ZM319.538 99.2727C319.258 99.2727 318.999 99.25 318.76 99.2045C318.525 99.1629 318.338 99.1136 318.197 99.0568L318.675 97.4545C318.974 97.5417 319.241 97.5833 319.476 97.5795C319.711 97.5758 319.917 97.5019 320.095 97.358C320.277 97.2178 320.43 96.983 320.555 96.6534L320.732 96.1818L317.567 87.2727H319.749L321.76 93.8636H321.851L323.868 87.2727H326.055L322.561 97.0568C322.398 97.5189 322.182 97.9148 321.913 98.2443C321.644 98.5777 321.315 98.8314 320.925 99.0057C320.538 99.1837 320.076 99.2727 319.538 99.2727ZM326.158 96L326.146 94.3068H326.447C326.675 94.3068 326.866 94.2557 327.021 94.1534C327.177 94.0511 327.305 93.8807 327.408 93.642C327.51 93.3996 327.589 93.0739 327.646 92.6648C327.703 92.2557 327.743 91.7462 327.766 91.1364L327.919 87.2727H334.283V96H332.294V88.9602H329.788L329.652 91.7727C329.618 92.5 329.536 93.1307 329.408 93.6648C329.283 94.1951 329.105 94.6326 328.874 94.9773C328.646 95.322 328.36 95.5795 328.016 95.75C327.671 95.9167 327.264 96 326.794 96H326.158ZM337.746 90.1136H340.32C341.433 90.1136 342.295 90.3845 342.905 90.9261C343.515 91.4678 343.821 92.178 343.825 93.0568C343.821 93.6288 343.681 94.1364 343.405 94.5795C343.132 95.0227 342.734 95.3712 342.212 95.625C341.693 95.875 341.062 96 340.32 96H336.354V87.2727H338.337V94.3125H340.32C340.767 94.3125 341.134 94.1989 341.422 93.9716C341.71 93.7405 341.854 93.4451 341.854 93.0852C341.854 92.7064 341.71 92.3977 341.422 92.1591C341.134 91.9205 340.767 91.8011 340.32 91.8011H337.746V90.1136ZM344.205 88.9602V87.2727H351.841V88.9602H349.017V96H347.028V88.9602H344.205ZM354.757 99.2727C354.477 99.2727 354.217 99.25 353.979 99.2045C353.744 99.1629 353.556 99.1136 353.416 99.0568L353.893 97.4545C354.193 97.5417 354.46 97.5833 354.695 97.5795C354.929 97.5758 355.136 97.5019 355.314 97.358C355.496 97.2178 355.649 96.983 355.774 96.6534L355.95 96.1818L352.786 87.2727H354.967L356.979 93.8636H357.07L359.087 87.2727H361.274L357.78 97.0568C357.617 97.5189 357.401 97.9148 357.132 98.2443C356.863 98.5777 356.534 98.8314 356.143 99.0057C355.757 99.1837 355.295 99.2727 354.757 99.2727ZM362.697 99.2727V87.2727H364.72V88.7159H364.839C364.946 88.5038 365.095 88.2784 365.288 88.0398C365.482 87.7973 365.743 87.5909 366.072 87.4205C366.402 87.2462 366.822 87.1591 367.334 87.1591C368.008 87.1591 368.616 87.3314 369.158 87.6761C369.703 88.017 370.135 88.5227 370.453 89.1932C370.775 89.8598 370.936 90.678 370.936 91.6477C370.936 92.6061 370.779 93.4205 370.464 94.0909C370.15 94.7614 369.722 95.2727 369.18 95.625C368.639 95.9773 368.025 96.1534 367.339 96.1534C366.839 96.1534 366.425 96.0701 366.095 95.9034C365.766 95.7367 365.5 95.536 365.3 95.3011C365.103 95.0625 364.949 94.8371 364.839 94.625H364.754V99.2727H362.697ZM364.714 91.6364C364.714 92.2008 364.794 92.6951 364.953 93.1193C365.116 93.5436 365.349 93.875 365.652 94.1136C365.959 94.3485 366.33 94.4659 366.766 94.4659C367.22 94.4659 367.601 94.3447 367.908 94.1023C368.214 93.8561 368.446 93.5208 368.601 93.0966C368.76 92.6686 368.839 92.1818 368.839 91.6364C368.839 91.0947 368.762 90.6136 368.607 90.1932C368.451 89.7727 368.22 89.4432 367.913 89.2045C367.607 88.9659 367.224 88.8466 366.766 88.8466C366.326 88.8466 365.953 88.9621 365.646 89.1932C365.339 89.4242 365.107 89.7481 364.947 90.1648C364.792 90.5814 364.714 91.072 364.714 91.6364ZM375.209 96.1761C374.656 96.1761 374.158 96.0777 373.714 95.8807C373.275 95.6799 372.927 95.3845 372.669 94.9943C372.415 94.6042 372.288 94.1231 372.288 93.5511C372.288 93.0587 372.379 92.6515 372.561 92.3295C372.743 92.0076 372.991 91.75 373.305 91.5568C373.62 91.3636 373.974 91.2178 374.368 91.1193C374.766 91.017 375.177 90.9432 375.601 90.8977C376.112 90.8447 376.527 90.7973 376.845 90.7557C377.163 90.7102 377.394 90.642 377.538 90.5511C377.686 90.4564 377.76 90.3106 377.76 90.1136V90.0795C377.76 89.6515 377.633 89.3201 377.379 89.0852C377.125 88.8504 376.76 88.733 376.283 88.733C375.779 88.733 375.379 88.8428 375.084 89.0625C374.792 89.2822 374.595 89.5417 374.493 89.8409L372.572 89.5682C372.724 89.0379 372.974 88.5947 373.322 88.2386C373.671 87.8788 374.097 87.6098 374.601 87.4318C375.105 87.25 375.661 87.1591 376.271 87.1591C376.692 87.1591 377.11 87.2083 377.527 87.3068C377.944 87.4053 378.324 87.5682 378.669 87.7955C379.014 88.0189 379.29 88.3239 379.499 88.7102C379.711 89.0966 379.817 89.5795 379.817 90.1591V96H377.839V94.8011H377.771C377.646 95.0436 377.47 95.2708 377.243 95.483C377.019 95.6913 376.737 95.8598 376.396 95.9886C376.059 96.1136 375.663 96.1761 375.209 96.1761ZM375.743 94.6648C376.156 94.6648 376.514 94.5833 376.817 94.4205C377.12 94.2538 377.353 94.0341 377.516 93.7614C377.682 93.4886 377.766 93.1913 377.766 92.8693V91.8409C377.701 91.8939 377.591 91.9432 377.436 91.9886C377.285 92.0341 377.114 92.0739 376.925 92.108C376.735 92.142 376.548 92.1723 376.362 92.1989C376.177 92.2254 376.016 92.2481 375.879 92.267C375.572 92.3087 375.298 92.3769 375.055 92.4716C374.813 92.5663 374.622 92.6989 374.482 92.8693C374.341 93.036 374.271 93.2519 374.271 93.517C374.271 93.8958 374.41 94.1818 374.686 94.375C374.963 94.5682 375.315 94.6648 375.743 94.6648Z" fill="white"/>
<rect x="716.404" y="27" width="47" height="47" rx="23.5" fill="#5E36AB"/>
<path d="M739.53 49.1989C738.507 49.1989 737.598 49.0237 736.803 48.6733C736.012 48.3229 735.387 47.8352 734.928 47.2102C734.468 46.5852 734.224 45.8632 734.196 45.044H736.867C736.89 45.437 737.02 45.7803 737.257 46.0739C737.494 46.3627 737.809 46.5876 738.202 46.7486C738.595 46.9096 739.035 46.9901 739.523 46.9901C740.044 46.9901 740.505 46.9001 740.908 46.7202C741.31 46.5355 741.625 46.2798 741.852 45.9531C742.08 45.6264 742.191 45.25 742.186 44.8239C742.191 44.3835 742.077 43.9953 741.845 43.6591C741.613 43.3229 741.277 43.0601 740.837 42.8707C740.401 42.6813 739.876 42.5866 739.26 42.5866H737.974V40.5554H739.26C739.767 40.5554 740.209 40.4678 740.588 40.2926C740.972 40.1174 741.272 39.8712 741.49 39.554C741.708 39.232 741.814 38.8603 741.81 38.4389C741.814 38.027 741.722 37.6695 741.533 37.3665C741.348 37.0587 741.085 36.8196 740.744 36.6491C740.408 36.4787 740.013 36.3935 739.558 36.3935C739.113 36.3935 738.701 36.474 738.322 36.6349C737.944 36.7959 737.638 37.0256 737.406 37.3239C737.174 37.6174 737.051 37.9678 737.037 38.375H734.501C734.52 37.5606 734.755 36.8456 735.205 36.2301C735.659 35.6098 736.265 35.1269 737.023 34.7812C737.78 34.4309 738.63 34.2557 739.572 34.2557C740.543 34.2557 741.386 34.438 742.101 34.8026C742.821 35.1624 743.377 35.6477 743.77 36.2585C744.163 36.8693 744.359 37.544 744.359 38.2827C744.364 39.1018 744.123 39.7884 743.635 40.3423C743.152 40.8963 742.518 41.2585 741.732 41.429V41.5426C742.754 41.6847 743.538 42.0634 744.082 42.679C744.632 43.2898 744.904 44.0497 744.899 44.9588C744.899 45.7732 744.667 46.5024 744.203 47.1463C743.744 47.7855 743.109 48.2874 742.3 48.652C741.495 49.0166 740.572 49.1989 739.53 49.1989Z" fill="white"/>
<path d="M732.474 62.088V55.32H729.63C729.582 56.3 729.514 57.16 729.426 57.9C729.338 58.64 729.234 59.282 729.114 59.826C728.994 60.37 728.86 60.826 728.712 61.194C728.564 61.558 728.404 61.856 728.232 62.088H732.474ZM735.048 62.088V64.746C735.048 64.85 735.014 64.934 734.946 64.998C734.878 65.062 734.788 65.094 734.676 65.094H733.986V63H727.056V64.746C727.056 64.85 727.02 64.934 726.948 64.998C726.88 65.062 726.792 65.094 726.684 65.094H725.988V62.088H726.864C726.988 62.028 727.112 61.932 727.236 61.8C727.36 61.664 727.478 61.472 727.59 61.224C727.706 60.972 727.814 60.656 727.914 60.276C728.014 59.896 728.104 59.432 728.184 58.884C728.268 58.332 728.34 57.688 728.4 56.952C728.46 56.216 728.506 55.366 728.538 54.402H733.644V62.088H735.048ZM739.888 59.298C739.888 59.05 739.852 58.824 739.78 58.62C739.712 58.412 739.61 58.234 739.474 58.086C739.342 57.934 739.18 57.818 738.988 57.738C738.796 57.654 738.578 57.612 738.334 57.612C737.822 57.612 737.416 57.762 737.116 58.062C736.82 58.358 736.636 58.77 736.564 59.298H739.888ZM740.752 62.148C740.62 62.308 740.462 62.448 740.278 62.568C740.094 62.684 739.896 62.78 739.684 62.856C739.476 62.932 739.26 62.988 739.036 63.024C738.812 63.064 738.59 63.084 738.37 63.084C737.95 63.084 737.562 63.014 737.206 62.874C736.854 62.73 736.548 62.522 736.288 62.25C736.032 61.974 735.832 61.634 735.688 61.23C735.544 60.826 735.472 60.362 735.472 59.838C735.472 59.414 735.536 59.018 735.664 58.65C735.796 58.282 735.984 57.964 736.228 57.696C736.472 57.424 736.77 57.212 737.122 57.06C737.474 56.904 737.87 56.826 738.31 56.826C738.674 56.826 739.01 56.888 739.318 57.012C739.63 57.132 739.898 57.308 740.122 57.54C740.35 57.768 740.528 58.052 740.656 58.392C740.784 58.728 740.848 59.112 740.848 59.544C740.848 59.712 740.83 59.824 740.794 59.88C740.758 59.936 740.69 59.964 740.59 59.964H736.528C736.54 60.348 736.592 60.682 736.684 60.966C736.78 61.25 736.912 61.488 737.08 61.68C737.248 61.868 737.448 62.01 737.68 62.106C737.912 62.198 738.172 62.244 738.46 62.244C738.728 62.244 738.958 62.214 739.15 62.154C739.346 62.09 739.514 62.022 739.654 61.95C739.794 61.878 739.91 61.812 740.002 61.752C740.098 61.688 740.18 61.656 740.248 61.656C740.336 61.656 740.404 61.69 740.452 61.758L740.752 62.148ZM747.224 56.922V63H746.15V60.156H743.234V63H742.16V56.922H743.234V59.346H746.15V56.922H747.224ZM751.256 62.22C751.472 62.22 751.658 62.194 751.814 62.142C751.974 62.086 752.106 62.01 752.21 61.914C752.314 61.814 752.392 61.698 752.444 61.566C752.496 61.434 752.522 61.29 752.522 61.134C752.522 60.99 752.5 60.856 752.456 60.732C752.412 60.604 752.338 60.492 752.234 60.396C752.134 60.3 752.002 60.224 751.838 60.168C751.674 60.112 751.474 60.084 751.238 60.084H749.948V62.22H751.256ZM751.238 59.304C751.658 59.304 752.01 59.354 752.294 59.454C752.582 59.554 752.812 59.688 752.984 59.856C753.16 60.024 753.286 60.218 753.362 60.438C753.438 60.658 753.476 60.886 753.476 61.122C753.476 61.394 753.428 61.646 753.332 61.878C753.236 62.106 753.094 62.304 752.906 62.472C752.718 62.636 752.486 62.766 752.21 62.862C751.934 62.954 751.616 63 751.256 63H748.922V56.922H749.948V59.304H751.238Z" fill="#DEDEDE"/>
<path fill-rule="evenodd" clip-rule="evenodd" d="M744.552 80.7841C743.356 80.9266 742.138 81 740.904 81C724.059 81 710.404 67.3447 710.404 50.5C710.404 47.183 710.933 43.9897 711.912 41H556.267C550.536 41 545.604 45.0533 544.494 50.6764L534.231 102.676C532.767 110.093 538.444 117 546.004 117H727.541C733.273 117 738.204 112.947 739.314 107.324L744.552 80.7841Z" fill="#5B31A9"/>
<path opacity="0.4" d="M722.001 104.458C722.361 104.458 722.707 104.315 722.961 104.06C723.216 103.806 723.359 103.46 723.359 103.1C723.359 102.74 723.216 102.394 722.961 102.14C722.707 101.885 722.361 101.742 722.001 101.742C721.641 101.742 721.295 101.885 721.04 102.14C720.786 102.394 720.643 102.74 720.643 103.1C720.643 103.46 720.786 103.806 721.04 104.06C721.295 104.315 721.641 104.458 722.001 104.458Z" fill="white"/>
<path d="M725.875 97.8675H718.125C714.708 97.8675 713.667 98.9092 713.667 102.326V103.876C713.667 107.292 714.708 108.334 718.125 108.334H725.875C729.292 108.334 730.333 107.292 730.333 103.876V102.326C730.333 98.9092 729.292 97.8675 725.875 97.8675ZM722 105.617C720.608 105.617 719.483 104.484 719.483 103.101C719.483 101.717 720.608 100.584 722 100.584C723.392 100.584 724.517 101.717 724.517 103.101C724.517 104.484 723.392 105.617 722 105.617Z" fill="white"/>
<path opacity="0.4" d="M717.933 97.875V96.9C717.933 94.4583 718.624 92.8333 721.999 92.8333C725.374 92.8333 726.066 94.4583 726.066 96.9V97.875C726.491 97.8833 726.874 97.9 727.233 97.95V96.9C727.233 94.65 726.691 91.6667 721.999 91.6667C717.308 91.6667 716.766 94.65 716.766 96.9V97.9417C717.116 97.9 717.508 97.875 717.933 97.875Z" fill="white"/>
<path d="M565.545 66.1818C565.545 67.4356 565.311 68.5095 564.841 69.4034C564.375 70.2936 563.739 70.9754 562.932 71.4489C562.129 71.9223 561.218 72.1591 560.199 72.1591C559.18 72.1591 558.267 71.9223 557.46 71.4489C556.657 70.9716 556.021 70.2879 555.551 69.3977C555.085 68.5038 554.852 67.4318 554.852 66.1818C554.852 64.928 555.085 63.8561 555.551 62.9659C556.021 62.072 556.657 61.3883 557.46 60.9148C558.267 60.4413 559.18 60.2045 560.199 60.2045C561.218 60.2045 562.129 60.4413 562.932 60.9148C563.739 61.3883 564.375 62.072 564.841 62.9659C565.311 63.8561 565.545 64.928 565.545 66.1818ZM563.426 66.1818C563.426 65.2992 563.288 64.5549 563.011 63.9489C562.739 63.339 562.36 62.8788 561.875 62.5682C561.39 62.2538 560.831 62.0966 560.199 62.0966C559.566 62.0966 559.008 62.2538 558.523 62.5682C558.038 62.8788 557.657 63.339 557.381 63.9489C557.108 64.5549 556.972 65.2992 556.972 66.1818C556.972 67.0644 557.108 67.8106 557.381 68.4205C557.657 69.0265 558.038 69.4867 558.523 69.8011C559.008 70.1117 559.566 70.267 560.199 70.267C560.831 70.267 561.39 70.1117 561.875 69.8011C562.36 69.4867 562.739 69.0265 563.011 68.4205C563.288 67.8106 563.426 67.0644 563.426 66.1818ZM571.254 72.1705C570.383 72.1705 569.635 71.9792 569.01 71.5966C568.389 71.214 567.91 70.6856 567.572 70.0114C567.239 69.3333 567.072 68.553 567.072 67.6705C567.072 66.7841 567.243 66.0019 567.584 65.3239C567.925 64.642 568.406 64.1117 569.027 63.733C569.652 63.3504 570.391 63.1591 571.243 63.1591C571.951 63.1591 572.578 63.2898 573.124 63.5511C573.673 63.8087 574.11 64.1742 574.436 64.6477C574.762 65.1174 574.947 65.6667 574.993 66.2955H573.027C572.947 65.875 572.758 65.5246 572.459 65.2443C572.163 64.9602 571.768 64.8182 571.271 64.8182C570.851 64.8182 570.482 64.9318 570.163 65.1591C569.845 65.3826 569.597 65.7045 569.419 66.125C569.245 66.5455 569.158 67.0492 569.158 67.6364C569.158 68.2311 569.245 68.7424 569.419 69.1705C569.593 69.5947 569.838 69.9223 570.152 70.1534C570.47 70.3807 570.843 70.4943 571.271 70.4943C571.574 70.4943 571.845 70.4375 572.084 70.3239C572.326 70.2064 572.529 70.0379 572.692 69.8182C572.855 69.5985 572.966 69.3314 573.027 69.017H574.993C574.944 69.6345 574.762 70.1818 574.447 70.6591C574.133 71.1326 573.705 71.5038 573.163 71.7727C572.622 72.0379 571.985 72.1705 571.254 72.1705ZM576.682 72V63.2727H580.347C581.381 63.2727 582.197 63.4792 582.795 63.892C583.398 64.3049 583.699 64.8807 583.699 65.6193C583.699 66.108 583.528 66.5076 583.188 66.8182C582.85 67.125 582.39 67.3314 581.807 67.4375C582.265 67.4754 582.667 67.5909 583.011 67.7841C583.36 67.9773 583.633 68.2311 583.83 68.5455C584.027 68.8598 584.125 69.2216 584.125 69.6307C584.125 70.1117 583.998 70.5303 583.744 70.8864C583.494 71.2386 583.129 71.5133 582.648 71.7102C582.17 71.9034 581.591 72 580.909 72H576.682ZM578.608 70.3807H580.909C581.288 70.3807 581.585 70.2917 581.801 70.1136C582.017 69.9318 582.125 69.6856 582.125 69.375C582.125 69.0152 582.017 68.733 581.801 68.5284C581.585 68.3201 581.288 68.2159 580.909 68.2159H578.608V70.3807ZM578.608 66.8864H580.386C580.667 66.8864 580.907 66.8466 581.108 66.767C581.309 66.6837 581.462 66.5682 581.568 66.4205C581.674 66.2689 581.727 66.089 581.727 65.8807C581.727 65.5814 581.604 65.3466 581.358 65.1761C581.116 65.0057 580.778 64.9205 580.347 64.9205H578.608V66.8864ZM589.629 72.1705C588.777 72.1705 588.038 71.983 587.413 71.608C586.788 71.233 586.304 70.7083 585.959 70.0341C585.618 69.3598 585.447 68.572 585.447 67.6705C585.447 66.7689 585.618 65.9792 585.959 65.3011C586.304 64.6231 586.788 64.0966 587.413 63.7216C588.038 63.3466 588.777 63.1591 589.629 63.1591C590.482 63.1591 591.22 63.3466 591.845 63.7216C592.47 64.0966 592.953 64.6231 593.294 65.3011C593.639 65.9792 593.811 66.7689 593.811 67.6705C593.811 68.572 593.639 69.3598 593.294 70.0341C592.953 70.7083 592.47 71.233 591.845 71.608C591.22 71.983 590.482 72.1705 589.629 72.1705ZM589.641 70.5227C590.103 70.5227 590.489 70.3958 590.8 70.142C591.11 69.8845 591.341 69.5398 591.493 69.108C591.648 68.6761 591.726 68.1951 591.726 67.6648C591.726 67.1307 591.648 66.6477 591.493 66.2159C591.341 65.7803 591.11 65.4337 590.8 65.1761C590.489 64.9186 590.103 64.7898 589.641 64.7898C589.167 64.7898 588.773 64.9186 588.459 65.1761C588.148 65.4337 587.915 65.7803 587.76 66.2159C587.608 66.6477 587.533 67.1307 587.533 67.6648C587.533 68.1951 587.608 68.6761 587.76 69.108C587.915 69.5398 588.148 69.8845 588.459 70.142C588.773 70.3958 589.167 70.5227 589.641 70.5227ZM599.42 72.1705C598.545 72.1705 597.79 71.9886 597.153 71.625C596.521 71.2576 596.034 70.7386 595.693 70.0682C595.352 69.3939 595.182 68.6004 595.182 67.6875C595.182 66.7898 595.352 66.0019 595.693 65.3239C596.038 64.642 596.519 64.1117 597.136 63.733C597.754 63.3504 598.479 63.1591 599.312 63.1591C599.85 63.1591 600.358 63.2462 600.835 63.4205C601.316 63.5909 601.741 63.8561 602.108 64.2159C602.479 64.5758 602.771 65.0341 602.983 65.5909C603.195 66.1439 603.301 66.803 603.301 67.5682V68.1989H596.148V66.8125H601.33C601.326 66.4186 601.241 66.0682 601.074 65.7614C600.907 65.4508 600.674 65.2064 600.375 65.0284C600.08 64.8504 599.735 64.7614 599.341 64.7614C598.92 64.7614 598.551 64.8636 598.233 65.0682C597.915 65.2689 597.667 65.5341 597.489 65.8636C597.314 66.1894 597.225 66.5473 597.222 66.9375V68.1477C597.222 68.6553 597.314 69.0909 597.5 69.4545C597.686 69.8144 597.945 70.0909 598.278 70.2841C598.612 70.4735 599.002 70.5682 599.449 70.5682C599.748 70.5682 600.019 70.5265 600.261 70.4432C600.504 70.3561 600.714 70.2292 600.892 70.0625C601.07 69.8958 601.205 69.6894 601.295 69.4432L603.216 69.6591C603.095 70.1667 602.864 70.6098 602.523 70.9886C602.186 71.3636 601.754 71.6553 601.227 71.8636C600.701 72.0682 600.098 72.1705 599.42 72.1705ZM611.036 66.7841V68.4716H606.388V66.7841H611.036ZM607.024 63.2727V72H605.041V63.2727H607.024ZM612.382 63.2727V72H610.405V63.2727H612.382ZM616.446 69.2159L619.94 63.2727H622.054V72H620.065V66.0511L616.582 72H614.463V63.2727H616.446V69.2159ZM628.03 72.1705C627.155 72.1705 626.399 71.9886 625.763 71.625C625.13 71.2576 624.643 70.7386 624.303 70.0682C623.962 69.3939 623.791 68.6004 623.791 67.6875C623.791 66.7898 623.962 66.0019 624.303 65.3239C624.647 64.642 625.128 64.1117 625.746 63.733C626.363 63.3504 627.089 63.1591 627.922 63.1591C628.46 63.1591 628.967 63.2462 629.445 63.4205C629.926 63.5909 630.35 63.8561 630.717 64.2159C631.089 64.5758 631.38 65.0341 631.592 65.5909C631.804 66.1439 631.911 66.803 631.911 67.5682V68.1989H624.757V66.8125H629.939C629.935 66.4186 629.85 66.0682 629.683 65.7614C629.517 65.4508 629.284 65.2064 628.984 65.0284C628.689 64.8504 628.344 64.7614 627.95 64.7614C627.53 64.7614 627.161 64.8636 626.842 65.0682C626.524 65.2689 626.276 65.5341 626.098 65.8636C625.924 66.1894 625.835 66.5473 625.831 66.9375V68.1477C625.831 68.6553 625.924 69.0909 626.109 69.4545C626.295 69.8144 626.554 70.0909 626.888 70.2841C627.221 70.4735 627.611 70.5682 628.058 70.5682C628.357 70.5682 628.628 70.5265 628.871 70.4432C629.113 70.3561 629.323 70.2292 629.501 70.0625C629.679 69.8958 629.814 69.6894 629.905 69.4432L631.825 69.6591C631.704 70.1667 631.473 70.6098 631.132 70.9886C630.795 71.3636 630.363 71.6553 629.837 71.8636C629.31 72.0682 628.708 72.1705 628.03 72.1705ZM555.057 99.2727V87.2727H557.08V88.7159H557.199C557.305 88.5038 557.455 88.2784 557.648 88.0398C557.841 87.7973 558.102 87.5909 558.432 87.4205C558.761 87.2462 559.182 87.1591 559.693 87.1591C560.367 87.1591 560.975 87.3314 561.517 87.6761C562.063 88.017 562.494 88.5227 562.812 89.1932C563.134 89.8598 563.295 90.678 563.295 91.6477C563.295 92.6061 563.138 93.4205 562.824 94.0909C562.509 94.7614 562.081 95.2727 561.54 95.625C560.998 95.9773 560.384 96.1534 559.699 96.1534C559.199 96.1534 558.784 96.0701 558.455 95.9034C558.125 95.7367 557.86 95.536 557.659 95.3011C557.462 95.0625 557.309 94.8371 557.199 94.625H557.114V99.2727H555.057ZM557.074 91.6364C557.074 92.2008 557.153 92.6951 557.312 93.1193C557.475 93.5436 557.708 93.875 558.011 94.1136C558.318 94.3485 558.689 94.4659 559.125 94.4659C559.58 94.4659 559.96 94.3447 560.267 94.1023C560.574 93.8561 560.805 93.5208 560.96 93.0966C561.119 92.6686 561.199 92.1818 561.199 91.6364C561.199 91.0947 561.121 90.6136 560.966 90.1932C560.811 89.7727 560.58 89.4432 560.273 89.2045C559.966 88.9659 559.583 88.8466 559.125 88.8466C558.686 88.8466 558.312 88.9621 558.006 89.1932C557.699 89.4242 557.466 89.7481 557.307 90.1648C557.152 90.5814 557.074 91.072 557.074 91.6364ZM567.568 96.1761C567.015 96.1761 566.517 96.0777 566.074 95.8807C565.634 95.6799 565.286 95.3845 565.028 94.9943C564.775 94.6042 564.648 94.1231 564.648 93.5511C564.648 93.0587 564.739 92.6515 564.92 92.3295C565.102 92.0076 565.35 91.75 565.665 91.5568C565.979 91.3636 566.333 91.2178 566.727 91.1193C567.125 91.017 567.536 90.9432 567.96 90.8977C568.472 90.8447 568.886 90.7973 569.205 90.7557C569.523 90.7102 569.754 90.642 569.898 90.5511C570.045 90.4564 570.119 90.3106 570.119 90.1136V90.0795C570.119 89.6515 569.992 89.3201 569.739 89.0852C569.485 88.8504 569.119 88.733 568.642 88.733C568.138 88.733 567.739 88.8428 567.443 89.0625C567.152 89.2822 566.955 89.5417 566.852 89.8409L564.932 89.5682C565.083 89.0379 565.333 88.5947 565.682 88.2386C566.03 87.8788 566.456 87.6098 566.96 87.4318C567.464 87.25 568.021 87.1591 568.631 87.1591C569.051 87.1591 569.47 87.2083 569.886 87.3068C570.303 87.4053 570.684 87.5682 571.028 87.7955C571.373 88.0189 571.65 88.3239 571.858 88.7102C572.07 89.0966 572.176 89.5795 572.176 90.1591V96H570.199V94.8011H570.131C570.006 95.0436 569.83 95.2708 569.602 95.483C569.379 95.6913 569.097 95.8598 568.756 95.9886C568.419 96.1136 568.023 96.1761 567.568 96.1761ZM568.102 94.6648C568.515 94.6648 568.873 94.5833 569.176 94.4205C569.479 94.2538 569.712 94.0341 569.875 93.7614C570.042 93.4886 570.125 93.1913 570.125 92.8693V91.8409C570.061 91.8939 569.951 91.9432 569.795 91.9886C569.644 92.0341 569.473 92.0739 569.284 92.108C569.095 92.142 568.907 92.1723 568.722 92.1989C568.536 92.2254 568.375 92.2481 568.239 92.267C567.932 92.3087 567.657 92.3769 567.415 92.4716C567.172 92.5663 566.981 92.6989 566.841 92.8693C566.701 93.036 566.631 93.2519 566.631 93.517C566.631 93.8958 566.769 94.1818 567.045 94.375C567.322 94.5682 567.674 94.6648 568.102 94.6648ZM581.239 84.0455L581.955 85.375C581.701 85.5947 581.417 85.7538 581.102 85.8523C580.788 85.9508 580.419 86.0152 579.994 86.0455C579.574 86.072 579.074 86.0909 578.494 86.1023C577.843 86.1174 577.311 86.2405 576.898 86.4716C576.485 86.7027 576.169 87.053 575.949 87.5227C575.729 87.9886 575.585 88.5833 575.517 89.3068H575.614C575.886 88.7727 576.269 88.3655 576.761 88.0852C577.254 87.8049 577.831 87.6648 578.494 87.6648C579.218 87.6648 579.856 87.8277 580.409 88.1534C580.966 88.4754 581.4 88.9432 581.71 89.5568C582.025 90.1705 582.182 90.9129 582.182 91.7841C582.182 92.6818 582.013 93.4602 581.676 94.1193C581.339 94.7746 580.86 95.2803 580.239 95.6364C579.621 95.9924 578.888 96.1705 578.04 96.1705C577.195 96.1705 576.46 95.9867 575.835 95.6193C575.214 95.2481 574.733 94.7008 574.392 93.9773C574.055 93.25 573.886 92.3542 573.886 91.2898V90.5057C573.886 88.4527 574.269 86.9205 575.034 85.9091C575.799 84.8977 576.934 84.3826 578.438 84.3636C578.884 84.3561 579.284 84.3542 579.636 84.358C579.992 84.3617 580.303 84.3447 580.568 84.3068C580.833 84.2689 581.057 84.1818 581.239 84.0455ZM578.051 94.5227C578.472 94.5227 578.835 94.4148 579.142 94.1989C579.449 93.9792 579.684 93.6686 579.847 93.267C580.013 92.8655 580.097 92.3902 580.097 91.8409C580.097 91.2992 580.013 90.839 579.847 90.4602C579.68 90.0777 579.443 89.786 579.136 89.5852C578.83 89.3845 578.464 89.2841 578.04 89.2841C577.722 89.2841 577.436 89.3409 577.182 89.4545C576.928 89.5682 576.712 89.7348 576.534 89.9545C576.356 90.1742 576.22 90.4413 576.125 90.7557C576.03 91.0701 575.979 91.4318 575.972 91.8409C575.972 92.6629 576.157 93.3163 576.528 93.8011C576.9 94.2822 577.407 94.5227 578.051 94.5227ZM587.739 96.1705C586.886 96.1705 586.148 95.983 585.523 95.608C584.898 95.233 584.413 94.7083 584.068 94.0341C583.727 93.3598 583.557 92.572 583.557 91.6705C583.557 90.7689 583.727 89.9792 584.068 89.3011C584.413 88.6231 584.898 88.0966 585.523 87.7216C586.148 87.3466 586.886 87.1591 587.739 87.1591C588.591 87.1591 589.33 87.3466 589.955 87.7216C590.58 88.0966 591.063 88.6231 591.403 89.3011C591.748 89.9792 591.92 90.7689 591.92 91.6705C591.92 92.572 591.748 93.3598 591.403 94.0341C591.063 94.7083 590.58 95.233 589.955 95.608C589.33 95.983 588.591 96.1705 587.739 96.1705ZM587.75 94.5227C588.212 94.5227 588.598 94.3958 588.909 94.142C589.22 93.8845 589.451 93.5398 589.602 93.108C589.758 92.6761 589.835 92.1951 589.835 91.6648C589.835 91.1307 589.758 90.6477 589.602 90.2159C589.451 89.7803 589.22 89.4337 588.909 89.1761C588.598 88.9186 588.212 88.7898 587.75 88.7898C587.277 88.7898 586.883 88.9186 586.568 89.1761C586.258 89.4337 586.025 89.7803 585.869 90.2159C585.718 90.6477 585.642 91.1307 585.642 91.6648C585.642 92.1951 585.718 92.6761 585.869 93.108C586.025 93.5398 586.258 93.8845 586.568 94.142C586.883 94.3958 587.277 94.5227 587.75 94.5227ZM600.956 87.2727V96H598.979V87.2727H600.956ZM600.03 91.2159V92.8977C599.806 92.9962 599.553 93.0852 599.268 93.1648C598.988 93.2405 598.691 93.3011 598.376 93.3466C598.066 93.392 597.755 93.4148 597.445 93.4148C596.278 93.4148 595.356 93.1534 594.678 92.6307C594.003 92.1042 593.666 91.2841 593.666 90.1705V87.2614H595.632V90.1705C595.632 90.5455 595.698 90.8466 595.831 91.0739C595.964 91.3011 596.164 91.4678 596.433 91.5739C596.702 91.6761 597.039 91.7273 597.445 91.7273C597.899 91.7273 598.331 91.6818 598.74 91.5909C599.149 91.5 599.579 91.375 600.03 91.2159ZM606.889 96.1705C606.014 96.1705 605.259 95.9886 604.622 95.625C603.99 95.2576 603.503 94.7386 603.162 94.0682C602.821 93.3939 602.651 92.6004 602.651 91.6875C602.651 90.7898 602.821 90.0019 603.162 89.3239C603.507 88.642 603.988 88.1117 604.605 87.733C605.223 87.3504 605.948 87.1591 606.781 87.1591C607.319 87.1591 607.827 87.2462 608.304 87.4205C608.785 87.5909 609.209 87.8561 609.577 88.2159C609.948 88.5758 610.24 89.0341 610.452 89.5909C610.664 90.1439 610.77 90.803 610.77 91.5682V92.1989H603.616V90.8125H608.798C608.795 90.4186 608.709 90.0682 608.543 89.7614C608.376 89.4508 608.143 89.2064 607.844 89.0284C607.548 88.8504 607.204 88.7614 606.81 88.7614C606.389 88.7614 606.02 88.8636 605.702 89.0682C605.384 89.2689 605.135 89.5341 604.957 89.8636C604.783 90.1894 604.694 90.5473 604.69 90.9375V92.1477C604.69 92.6553 604.783 93.0909 604.969 93.4545C605.154 93.8144 605.414 94.0909 605.747 94.2841C606.08 94.4735 606.471 94.5682 606.918 94.5682C607.217 94.5682 607.488 94.5265 607.73 94.4432C607.973 94.3561 608.183 94.2292 608.361 94.0625C608.539 93.8958 608.673 93.6894 608.764 93.4432L610.685 93.6591C610.563 94.1667 610.332 94.6098 609.991 94.9886C609.654 95.3636 609.223 95.6553 608.696 95.8636C608.17 96.0682 607.567 96.1705 606.889 96.1705ZM618.283 87.2727V88.9602H614.521V96H612.51V87.2727H618.283ZM623.379 96.1705C622.527 96.1705 621.788 95.983 621.163 95.608C620.538 95.233 620.054 94.7083 619.709 94.0341C619.368 93.3598 619.197 92.572 619.197 91.6705C619.197 90.7689 619.368 89.9792 619.709 89.3011C620.054 88.6231 620.538 88.0966 621.163 87.7216C621.788 87.3466 622.527 87.1591 623.379 87.1591C624.232 87.1591 624.97 87.3466 625.595 87.7216C626.22 88.0966 626.703 88.6231 627.044 89.3011C627.389 89.9792 627.561 90.7689 627.561 91.6705C627.561 92.572 627.389 93.3598 627.044 94.0341C626.703 94.7083 626.22 95.233 625.595 95.608C624.97 95.983 624.232 96.1705 623.379 96.1705ZM623.391 94.5227C623.853 94.5227 624.239 94.3958 624.55 94.142C624.86 93.8845 625.091 93.5398 625.243 93.108C625.398 92.6761 625.476 92.1951 625.476 91.6648C625.476 91.1307 625.398 90.6477 625.243 90.2159C625.091 89.7803 624.86 89.4337 624.55 89.1761C624.239 88.9186 623.853 88.7898 623.391 88.7898C622.917 88.7898 622.523 88.9186 622.209 89.1761C621.898 89.4337 621.665 89.7803 621.51 90.2159C621.358 90.6477 621.283 91.1307 621.283 91.6648C621.283 92.1951 621.358 92.6761 621.51 93.108C621.665 93.5398 621.898 93.8845 622.209 94.142C622.523 94.3958 622.917 94.5227 623.391 94.5227ZM638.298 93.608L640.889 87.2727H642.548L639.02 96H637.582L634.134 87.2727H635.776L638.298 93.608ZM635.259 87.2727V96H633.276V87.2727H635.259ZM641.423 96V87.2727H643.389V96H641.423ZM649.327 96.1705C648.452 96.1705 647.696 95.9886 647.06 95.625C646.427 95.2576 645.94 94.7386 645.599 94.0682C645.259 93.3939 645.088 92.6004 645.088 91.6875C645.088 90.7898 645.259 90.0019 645.599 89.3239C645.944 88.642 646.425 88.1117 647.043 87.733C647.66 87.3504 648.385 87.1591 649.219 87.1591C649.757 87.1591 650.264 87.2462 650.741 87.4205C651.223 87.5909 651.647 87.8561 652.014 88.2159C652.385 88.5758 652.677 89.0341 652.889 89.5909C653.101 90.1439 653.207 90.803 653.207 91.5682V92.1989H646.054V90.8125H651.236C651.232 90.4186 651.147 90.0682 650.98 89.7614C650.813 89.4508 650.58 89.2064 650.281 89.0284C649.986 88.8504 649.641 88.7614 649.247 88.7614C648.827 88.7614 648.457 88.8636 648.139 89.0682C647.821 89.2689 647.573 89.5341 647.395 89.8636C647.221 90.1894 647.132 90.5473 647.128 90.9375V92.1477C647.128 92.6553 647.221 93.0909 647.406 93.4545C647.592 93.8144 647.851 94.0909 648.185 94.2841C648.518 94.4735 648.908 94.5682 649.355 94.5682C649.654 94.5682 649.925 94.5265 650.168 94.4432C650.41 94.3561 650.62 94.2292 650.798 94.0625C650.976 93.8958 651.111 93.6894 651.202 93.4432L653.122 93.6591C653.001 94.1667 652.77 94.6098 652.429 94.9886C652.092 95.3636 651.66 95.6553 651.134 95.8636C650.607 96.0682 650.005 96.1705 649.327 96.1705ZM658.754 96.1705C657.883 96.1705 657.135 95.9792 656.51 95.5966C655.889 95.214 655.41 94.6856 655.072 94.0114C654.739 93.3333 654.572 92.553 654.572 91.6705C654.572 90.7841 654.743 90.0019 655.084 89.3239C655.425 88.642 655.906 88.1117 656.527 87.733C657.152 87.3504 657.891 87.1591 658.743 87.1591C659.451 87.1591 660.078 87.2898 660.624 87.5511C661.173 87.8087 661.61 88.1742 661.936 88.6477C662.262 89.1174 662.447 89.6667 662.493 90.2955H660.527C660.447 89.875 660.258 89.5246 659.959 89.2443C659.663 88.9602 659.268 88.8182 658.771 88.8182C658.351 88.8182 657.982 88.9318 657.663 89.1591C657.345 89.3826 657.097 89.7045 656.919 90.125C656.745 90.5455 656.658 91.0492 656.658 91.6364C656.658 92.2311 656.745 92.7424 656.919 93.1705C657.093 93.5947 657.338 93.9223 657.652 94.1534C657.97 94.3807 658.343 94.4943 658.771 94.4943C659.074 94.4943 659.345 94.4375 659.584 94.3239C659.826 94.2064 660.029 94.0379 660.192 93.8182C660.355 93.5985 660.466 93.3314 660.527 93.017H662.493C662.444 93.6345 662.262 94.1818 661.947 94.6591C661.633 95.1326 661.205 95.5038 660.663 95.7727C660.122 96.0379 659.485 96.1705 658.754 96.1705ZM663.548 88.9602V87.2727H671.185V88.9602H668.361V96H666.372V88.9602H663.548ZM674.974 96.1761C674.421 96.1761 673.923 96.0777 673.48 95.8807C673.041 95.6799 672.692 95.3845 672.435 94.9943C672.181 94.6042 672.054 94.1231 672.054 93.5511C672.054 93.0587 672.145 92.6515 672.327 92.3295C672.509 92.0076 672.757 91.75 673.071 91.5568C673.385 91.3636 673.74 91.2178 674.134 91.1193C674.531 91.017 674.942 90.9432 675.366 90.8977C675.878 90.8447 676.293 90.7973 676.611 90.7557C676.929 90.7102 677.16 90.642 677.304 90.5511C677.452 90.4564 677.526 90.3106 677.526 90.1136V90.0795C677.526 89.6515 677.399 89.3201 677.145 89.0852C676.891 88.8504 676.526 88.733 676.048 88.733C675.545 88.733 675.145 88.8428 674.849 89.0625C674.558 89.2822 674.361 89.5417 674.259 89.8409L672.338 89.5682C672.49 89.0379 672.74 88.5947 673.088 88.2386C673.437 87.8788 673.863 87.6098 674.366 87.4318C674.87 87.25 675.427 87.1591 676.037 87.1591C676.457 87.1591 676.876 87.2083 677.293 87.3068C677.709 87.4053 678.09 87.5682 678.435 87.7955C678.779 88.0189 679.056 88.3239 679.264 88.7102C679.476 89.0966 679.582 89.5795 679.582 90.1591V96H677.605V94.8011H677.537C677.412 95.0436 677.236 95.2708 677.009 95.483C676.785 95.6913 676.503 95.8598 676.162 95.9886C675.825 96.1136 675.429 96.1761 674.974 96.1761ZM675.509 94.6648C675.921 94.6648 676.279 94.5833 676.582 94.4205C676.885 94.2538 677.118 94.0341 677.281 93.7614C677.448 93.4886 677.531 93.1913 677.531 92.8693V91.8409C677.467 91.8939 677.357 91.9432 677.202 91.9886C677.05 92.0341 676.88 92.0739 676.69 92.108C676.501 92.142 676.313 92.1723 676.128 92.1989C675.942 92.2254 675.781 92.2481 675.645 92.267C675.338 92.3087 675.063 92.3769 674.821 92.4716C674.579 92.5663 674.387 92.6989 674.247 92.8693C674.107 93.036 674.037 93.2519 674.037 93.517C674.037 93.8958 674.175 94.1818 674.452 94.375C674.728 94.5682 675.08 94.6648 675.509 94.6648Z" fill="white"/>
</g>
<defs>
<filter id="filter0_d_124_4247" x="192.404" y="-1" width="111" height="111" filterUnits="userSpaceOnUse" color-interpolation-filters="sRGB">
<feFlood flood-opacity="0" result="BackgroundImageFix"/>
<feColorMatrix in="SourceAlpha" type="matrix" values="0 0 0 0 0 0 0 0 0 0 0 0 0 0 0 0 0 0 127 0" result="hardAlpha"/>
<feOffset dy="4"/>
<feGaussianBlur stdDeviation="16"/>
<feComposite in2="hardAlpha" operator="out"/>
<feColorMatrix type="matrix" values="0 0 0 0 0.992157 0 0 0 0 0.866667 0 0 0 0 0.0941176 0 0 0 0.24 0"/>
<feBlend mode="normal" in2="BackgroundImageFix" result="effect1_dropShadow_124_4247"/>
<feBlend mode="normal" in="SourceGraphic" in2="effect1_dropShadow_124_4247" result="shape"/>
</filter>
<linearGradient id="paint0_linear_124_4247" x1="-79" y1="216.5" x2="-87.0031" y2="-403.18" gradientUnits="userSpaceOnUse">
<stop stop-color="#8C64D8"/>
<stop offset="1" stop-color="#541DBD"/>
</linearGradient>
<clipPath id="clip0_124_4247">
<rect width="757" height="161" rx="12" fill="white"/>
</clipPath>
</defs>
</svg>
