<svg width="50" height="50" viewBox="0 0 50 50" fill="none" xmlns="http://www.w3.org/2000/svg">
<path d="M50 25C50 38.8071 38.8071 50 25 50C11.1929 50 0 38.8071 0 25C0 11.1929 11.1929 0 25 0C38.8071 0 50 11.1929 50 25ZM5.626 25C5.626 35.7 14.3 44.374 25 44.374C35.7 44.374 44.374 35.7 44.374 25C44.374 14.3 35.7 5.626 25 5.626C14.3 5.626 5.626 14.3 5.626 25Z" fill="url(#paint0_angular_106_10076)"/>
<path d="M16.8423 19.8182V30H15.3011V21.3594H15.2415L12.8054 22.9503V21.4787L15.3459 19.8182H16.8423ZM19.3828 28.0114V26.7685L23.7827 19.8182H24.7621V21.6477H24.1406L20.9936 26.6293V26.7088H27.0241V28.0114H19.3828ZM24.2102 30V27.6335L24.2202 27.0668V19.8182H25.6768V30H24.2102ZM34.0714 28.0909V27.554C34.0714 27.1695 34.1509 26.8182 34.31 26.5C34.4724 26.1785 34.7077 25.9216 35.016 25.7294C35.3275 25.5339 35.7037 25.4361 36.1445 25.4361C36.5953 25.4361 36.9731 25.5322 37.2781 25.7244C37.583 25.9167 37.8133 26.1735 37.9691 26.495C38.1282 26.8165 38.2077 27.1695 38.2077 27.554V28.0909C38.2077 28.4754 38.1282 28.8284 37.9691 29.1499C37.81 29.468 37.5763 29.7249 37.2681 29.9205C36.9632 30.1127 36.5887 30.2088 36.1445 30.2088C35.6971 30.2088 35.3192 30.1127 35.011 29.9205C34.7028 29.7249 34.4691 29.468 34.31 29.1499C34.1509 28.8284 34.0714 28.4754 34.0714 28.0909ZM35.2298 27.554V28.0909C35.2298 28.3759 35.2977 28.6345 35.4336 28.8665C35.5695 29.0985 35.8065 29.2145 36.1445 29.2145C36.4793 29.2145 36.713 29.0985 36.8455 28.8665C36.9781 28.6345 37.0444 28.3759 37.0444 28.0909V27.554C37.0444 27.2689 36.9798 27.0104 36.8505 26.7784C36.7246 26.5464 36.4892 26.4304 36.1445 26.4304C35.8131 26.4304 35.5778 26.5464 35.4386 26.7784C35.2994 27.0104 35.2298 27.2689 35.2298 27.554ZM28.9506 22.2642V21.7273C28.9506 21.3428 29.0302 20.9898 29.1893 20.6683C29.3517 20.3468 29.587 20.09 29.8952 19.8977C30.2068 19.7055 30.583 19.6094 31.0238 19.6094C31.4746 19.6094 31.8524 19.7055 32.1573 19.8977C32.4622 20.09 32.6926 20.3468 32.8484 20.6683C33.0041 20.9898 33.082 21.3428 33.082 21.7273V22.2642C33.082 22.6487 33.0025 23.0017 32.8434 23.3232C32.6876 23.6413 32.4556 23.8982 32.1474 24.0938C31.8424 24.286 31.4679 24.3821 31.0238 24.3821C30.573 24.3821 30.1935 24.286 29.8853 24.0938C29.5804 23.8982 29.3484 23.6413 29.1893 23.3232C29.0302 23.0017 28.9506 22.6487 28.9506 22.2642ZM30.114 21.7273V22.2642C30.114 22.5492 30.1803 22.8078 30.3129 23.0398C30.4487 23.2718 30.6857 23.3878 31.0238 23.3878C31.3552 23.3878 31.5872 23.2718 31.7198 23.0398C31.8557 22.8078 31.9237 22.5492 31.9237 22.2642V21.7273C31.9237 21.4422 31.859 21.1837 31.7298 20.9517C31.6005 20.7197 31.3652 20.6037 31.0238 20.6037C30.6924 20.6037 30.457 20.7197 30.3178 20.9517C30.1819 21.1837 30.114 21.4422 30.114 21.7273ZM29.4229 30L36.4229 19.8182H37.6112L30.6112 30H29.4229Z" fill="black"/>
<defs>
<radialGradient id="paint0_angular_106_10076" cx="0" cy="0" r="1" gradientUnits="userSpaceOnUse" gradientTransform="translate(25 25) rotate(-90) scale(25.5319)">
<stop stop-color="#8C64D8"/>
<stop offset="1" stop-color="#8C64D8" stop-opacity="0"/>
</radialGradient>
</defs>
</svg>
