<svg width="242" height="74" viewBox="0 0 242 74" fill="none" xmlns="http://www.w3.org/2000/svg">
<circle cx="125.454" cy="-0.343572" r="2.46933" stroke="#7DE7FD"/>
<circle cx="108.38" cy="26.3804" r="1.48466" fill="#8C64D8"/>
<circle cx="17.0737" cy="33.8037" r="2.22699" fill="#8C64D8"/>
<circle cx="197.09" cy="54.2178" r="3.34049" fill="#FDDD18"/>
<path d="M48.9939 85.964C47.3639 83.9251 45.7716 81.0434 43.7988 79.2377C38.8906 74.7528 32.8083 75.0012 26.7295 76.2482C22.8897 77.0364 19.4043 78.2497 15.5973 79.2377C13.2088 79.8593 10.6227 80.6621 8.17587 80.7324C3.24576 80.873 -0.0533633 77.037 0.0122743 71.764C0.128963 71.9971 -0.0460702 71.6123 0.0122743 71.764C2.06527 77.1702 5.53608 79.7854 11.1445 78.4903C14.7363 77.6614 18.0046 75.8525 21.5345 74.7535C26.7089 73.1401 32.5268 72.463 37.8617 74.0061C43.171 75.5417 46.2097 79.2999 48.2517 84.4692C48.4669 85.0095 48.9319 85.605 48.9939 85.964Z" fill="#4CB4FF"/>
<path d="M178.172 20.9743C175.51 20.4826 174.357 20.671 172.976 23.1206C174.909 22.5612 176.053 22.0923 177.43 21.6897C178.204 23.6011 178.205 23.9651 172.233 25.9824C172.822 28.9236 174.889 30.3556 179.657 30.2751C179.657 30.9532 179.657 31.0533 179.657 31.706C174.971 32.7782 172.315 31.1062 171.491 25.9824C164.139 25.2662 161.859 23.1507 161.841 18.8279C163.901 21.7479 166.439 23.0613 170.006 23.1206C171.301 23.1418 171.844 23.0205 172.233 21.6897C172.537 20.6641 173.591 19.4848 174.46 18.8279C175.158 18.2981 175.85 18.5821 176.687 18.8279C177.281 19.0059 177.769 20.2241 178.172 20.9743Z" fill="#FDDD18"/>
<path d="M89.8997 -12.193C91.694 -5.80611 95.5641 -4.17163 101 -3.20148C106.947 -2.14096 110.228 2.0056 110.62 8.78717C109.095 2.34801 105.11 -0.0833178 99.5199 -0.953604C94.0664 -1.80011 91.2179 -5.13026 89.8997 -10.6944C89.8291 -10.9987 89.9085 -11.1298 89.8997 -11.4437C89.8909 -11.5911 89.7586 -11.7126 89.8997 -12.193Z" fill="#8C64D8"/>
<path d="M201.184 -2.45221C200.91 -0.225691 199.463 1.12909 197.473 2.79282C195.241 4.66057 193.506 6.33895 191.534 8.03786C191.773 5.71989 193.183 4.47414 195.246 2.79282C197.417 1.01653 199.212 -0.700541 201.184 -2.45221Z" fill="#FDDD18"/>
<path d="M31.9257 11.6779C26.7433 12.4219 22.1772 9.1643 22.2841 5.04071C23.8286 6.12007 25.1118 7.23607 26.734 7.99057C28.3854 8.7608 29.8663 8.91011 31.9257 9.46551C31.9596 9.96851 31.8528 10.7033 31.9257 11.6779Z" fill="#8C64D8"/>
<path d="M134.374 61.9867C134.569 56.8669 137.91 53.1292 143.282 52.246C142.842 53.3637 143.085 54.3092 142.54 54.4938C138.718 55.7913 136.375 58.1793 134.374 61.9867Z" fill="#8C64D8"/>
<path d="M191.573 12.58C192.483 14.5657 193.593 16.5365 194.504 18.5221C194.267 18.6508 194.007 18.3935 193.771 18.5221C192.963 16.4565 192.382 14.6456 191.573 12.58C191.705 12.5278 191.439 12.6322 191.573 12.58Z" fill="#FDDD18"/>
<path d="M75.7302 38.2888C72.8744 34.8643 68.8055 36.0023 66.8223 36.9536V34.9507C70.63 32.3823 74.1437 34.859 75.7302 36.2859V38.2888Z" fill="#E32727" stroke="#E32727"/>
</svg>
